# xmcd
#
# Track frame offsets:
#	150
#	15170
#	32796
#	47581
#	65738
#	82942
#	96787
#	108166
#	118579
#	139671
#	154680
#	174446
#	191998
#	209117
#	223499
#
# Disc length: 3221 seconds
#
# Revision: 1
# Processed by: cddbd v1.5.2PL0 Copyright (c) Steve Scherf et al.
# Submitted via: audiograbber 1.83.01
#
DISCID=d30c930f
DTITLE=Bluet- and Leberwürscht - Under Eim Huet
DYEAR=1998
DGENRE=Country
TTITLE0=Come Early Morning
TTITLE1=If I Can Find A Clean Shirt
TTITLE2=Smokey
TTITLE3=Somebody Nobody Knows
TTITLE4=Walk of Life
TTITLE5=Sha La La La Lee
TTITLE6=School Days
TTITLE7=Endless Sleep
TTITLE8=Zockerhöhle
TTITLE9=Had A Dream
TTITLE10=Where'm I Gonna Live
TTITLE11=Stammbeiz
TTITLE12=Your My Best Friend
TTITLE13=Rainy Day Woman
TTITLE14=Cuba Rock
EXTD=SP9220
EXTT0=
EXTT1=
EXTT2=
EXTT3=
EXTT4=
EXTT5=
EXTT6=
EXTT7=
EXTT8=
EXTT9=
EXTT10=
EXTT11=
EXTT12=
EXTT13=
EXTT14=
PLAYORDER=
